<svg xmlns="http://www.w3.org/2000/svg" viewBox="0 0 1200 340" role="img" aria-label="pimsteward — a permission-aware MCP mediator for your personal data">
  <title>pimsteward</title>
  <defs>
    <linearGradient id="bg" x1="0" y1="0" x2="1" y2="1">
      <stop offset="0%" stop-color="#0b1220"/>
      <stop offset="50%" stop-color="#0f172a"/>
      <stop offset="100%" stop-color="#1e293b"/>
    </linearGradient>
    <linearGradient id="shield" x1="0" y1="0" x2="0" y2="1">
      <stop offset="0%" stop-color="#1e3a8a"/>
      <stop offset="100%" stop-color="#0b1220"/>
    </linearGradient>
    <linearGradient id="env" x1="0" y1="0" x2="0" y2="1">
      <stop offset="0%" stop-color="#f8fafc"/>
      <stop offset="100%" stop-color="#cbd5e1"/>
    </linearGradient>
    <radialGradient id="spot" cx="0.2" cy="0.3" r="0.8">
      <stop offset="0%" stop-color="#38bdf8" stop-opacity="0.18"/>
      <stop offset="60%" stop-color="#38bdf8" stop-opacity="0"/>
    </radialGradient>
    <filter id="glow" x="-50%" y="-50%" width="200%" height="200%">
      <feGaussianBlur stdDeviation="4" result="b"/>
      <feMerge><feMergeNode in="b"/><feMergeNode in="SourceGraphic"/></feMerge>
    </filter>
  </defs>

  <rect width="1200" height="340" fill="url(#bg)"/>
  <rect width="1200" height="340" fill="url(#spot)"/>

  <!-- grid hint -->
  <g stroke="#1e293b" stroke-width="1" opacity="0.6">
    <line x1="0" y1="60"  x2="1200" y2="60"/>
    <line x1="0" y1="120" x2="1200" y2="120"/>
    <line x1="0" y1="180" x2="1200" y2="180"/>
    <line x1="0" y1="240" x2="1200" y2="240"/>
    <line x1="0" y1="300" x2="1200" y2="300"/>
  </g>

  <!-- logo, scaled and translated -->
  <g transform="translate(70,40) scale(0.52)">
    <path d="M256 28 L452 94 V260 C452 372 366 458 256 484 C146 458 60 372 60 260 V94 Z"
          fill="url(#shield)" stroke="#38bdf8" stroke-width="10" stroke-linejoin="round"/>
    <path d="M256 60 L424 116 V258 C424 352 352 428 256 452 C160 428 88 352 88 258 V116 Z"
          fill="none" stroke="#334155" stroke-width="3"/>
    <g transform="translate(0,-10)">
      <rect x="132" y="186" width="248" height="164" rx="14" fill="url(#env)" stroke="#38bdf8" stroke-width="6"/>
      <path d="M132 198 L256 292 L380 198" fill="none" stroke="#1e3a8a" stroke-width="10" stroke-linecap="round" stroke-linejoin="round"/>
      <path d="M132 350 L220 270 M380 350 L292 270" fill="none" stroke="#94a3b8" stroke-width="4" stroke-linecap="round"/>
    </g>
    <g filter="url(#glow)">
      <line x1="160" y1="402" x2="352" y2="402" stroke="#fbbf24" stroke-width="6" stroke-linecap="round"/>
      <circle cx="160" cy="402" r="14" fill="#fbbf24"/>
      <circle cx="256" cy="402" r="14" fill="#fbbf24"/>
      <circle cx="352" cy="402" r="18" fill="#fbbf24" stroke="#fff7ed" stroke-width="3"/>
    </g>
  </g>

  <!-- wordmark -->
  <g font-family="ui-sans-serif, system-ui, -apple-system, Segoe UI, Roboto, Inter, sans-serif">
    <text x="370" y="170" font-size="110" font-weight="800" fill="#f8fafc" letter-spacing="-3">
      pim<tspan fill="#38bdf8">steward</tspan>
    </text>
    <text x="374" y="220" font-size="23" font-weight="500" fill="#94a3b8" textLength="750" lengthAdjust="spacingAndGlyphs">
      A permission-aware MCP mediator for your mail, calendar &amp; contacts.
    </text>
    <text x="374" y="258" font-size="21" font-weight="400" fill="#64748b" textLength="660" lengthAdjust="spacingAndGlyphs">
      Every change captured in git. Time-travel restore built in.
    </text>
  </g>

  <!-- accent dots on right -->
  <g fill="#fbbf24" opacity="0.9" filter="url(#glow)">
    <circle cx="1100" cy="80"  r="4"/>
    <circle cx="1130" cy="120" r="4"/>
    <circle cx="1080" cy="140" r="4"/>
    <circle cx="1150" cy="200" r="4"/>
    <circle cx="1100" cy="250" r="4"/>
  </g>
</svg>
